<mxfile host="www.draw.io" modified="2019-11-26T06:31:03.717Z" agent="Mozilla/5.0 (Windows NT 10.0; WOW64) AppleWebKit/537.36 (KHTML, like Gecko) Chrome/65.0.3325.181 Safari/537.36" etag="yaVBx4TTazUsbWvYLgec" version="12.3.0" type="github" pages="1">
  <diagram id="2iWzaSMPIs_KK1YeKYfu" name="Page-1">
    <mxGraphModel dx="2310" dy="834" grid="1" gridSize="10" guides="1" tooltips="1" connect="1" arrows="1" fold="1" page="1" pageScale="1" pageWidth="827" pageHeight="1169" math="0" shadow="0">
      <root>
        <mxCell id="0"/>
        <mxCell id="1" parent="0"/>
        <mxCell id="H2aWPDKfTVoknCPOFKpZ-3" value="" style="edgeStyle=orthogonalEdgeStyle;rounded=0;orthogonalLoop=1;jettySize=auto;html=1;" parent="1" source="H2aWPDKfTVoknCPOFKpZ-1" edge="1">
          <mxGeometry relative="1" as="geometry">
            <mxPoint x="390" y="110" as="targetPoint"/>
          </mxGeometry>
        </mxCell>
        <mxCell id="H2aWPDKfTVoknCPOFKpZ-1" value="mq" style="rounded=1;whiteSpace=wrap;html=1;" parent="1" vertex="1">
          <mxGeometry x="330" y="10" width="120" height="60" as="geometry"/>
        </mxCell>
        <mxCell id="H2aWPDKfTVoknCPOFKpZ-7" value="" style="edgeStyle=orthogonalEdgeStyle;rounded=0;orthogonalLoop=1;jettySize=auto;html=1;" parent="1" source="H2aWPDKfTVoknCPOFKpZ-4" edge="1">
          <mxGeometry relative="1" as="geometry">
            <mxPoint x="185" y="220" as="targetPoint"/>
          </mxGeometry>
        </mxCell>
        <mxCell id="H2aWPDKfTVoknCPOFKpZ-9" style="edgeStyle=orthogonalEdgeStyle;rounded=0;orthogonalLoop=1;jettySize=auto;html=1;" parent="1" source="H2aWPDKfTVoknCPOFKpZ-4" edge="1">
          <mxGeometry relative="1" as="geometry">
            <mxPoint x="590" y="220" as="targetPoint"/>
            <Array as="points">
              <mxPoint x="590" y="150"/>
              <mxPoint x="590" y="220"/>
            </Array>
          </mxGeometry>
        </mxCell>
        <mxCell id="H2aWPDKfTVoknCPOFKpZ-4" value="判断分享者是否是美店主（查询美店主）" style="rhombus;whiteSpace=wrap;html=1;" parent="1" vertex="1">
          <mxGeometry x="335" y="110" width="110" height="80" as="geometry"/>
        </mxCell>
        <mxCell id="H2aWPDKfTVoknCPOFKpZ-8" value="处理关系链订单（集合A、B、C）" style="rounded=1;whiteSpace=wrap;html=1;" parent="1" vertex="1">
          <mxGeometry x="126" y="220" width="118" height="60" as="geometry"/>
        </mxCell>
        <mxCell id="H2aWPDKfTVoknCPOFKpZ-11" value="是" style="text;html=1;strokeColor=none;fillColor=none;align=center;verticalAlign=middle;whiteSpace=wrap;rounded=0;" parent="1" vertex="1">
          <mxGeometry x="230" y="130" width="40" height="20" as="geometry"/>
        </mxCell>
        <mxCell id="H2aWPDKfTVoknCPOFKpZ-13" value="否" style="text;html=1;strokeColor=none;fillColor=none;align=center;verticalAlign=middle;whiteSpace=wrap;rounded=0;" parent="1" vertex="1">
          <mxGeometry x="530" y="130" width="40" height="20" as="geometry"/>
        </mxCell>
        <mxCell id="H2aWPDKfTVoknCPOFKpZ-16" style="edgeStyle=orthogonalEdgeStyle;rounded=0;orthogonalLoop=1;jettySize=auto;html=1;entryX=0.5;entryY=0;entryDx=0;entryDy=0;" parent="1" source="H2aWPDKfTVoknCPOFKpZ-14" target="H2aWPDKfTVoknCPOFKpZ-22" edge="1">
          <mxGeometry relative="1" as="geometry">
            <mxPoint x="478" y="320" as="targetPoint"/>
          </mxGeometry>
        </mxCell>
        <mxCell id="H2aWPDKfTVoknCPOFKpZ-18" style="edgeStyle=orthogonalEdgeStyle;rounded=0;orthogonalLoop=1;jettySize=auto;html=1;" parent="1" source="H2aWPDKfTVoknCPOFKpZ-14" edge="1">
          <mxGeometry relative="1" as="geometry">
            <mxPoint x="700" y="320" as="targetPoint"/>
          </mxGeometry>
        </mxCell>
        <mxCell id="H2aWPDKfTVoknCPOFKpZ-14" value="判断是否存在全转增记录" style="rhombus;whiteSpace=wrap;html=1;" parent="1" vertex="1">
          <mxGeometry x="540" y="220" width="100" height="80" as="geometry"/>
        </mxCell>
        <mxCell id="H2aWPDKfTVoknCPOFKpZ-25" value="" style="edgeStyle=orthogonalEdgeStyle;rounded=0;orthogonalLoop=1;jettySize=auto;html=1;" parent="1" source="H2aWPDKfTVoknCPOFKpZ-17" edge="1">
          <mxGeometry relative="1" as="geometry">
            <mxPoint x="700" y="460" as="targetPoint"/>
          </mxGeometry>
        </mxCell>
        <mxCell id="H2aWPDKfTVoknCPOFKpZ-17" value="判断是否存在关系链" style="rhombus;whiteSpace=wrap;html=1;" parent="1" vertex="1">
          <mxGeometry x="650" y="320" width="100" height="80" as="geometry"/>
        </mxCell>
        <mxCell id="H2aWPDKfTVoknCPOFKpZ-21" value="是" style="text;html=1;strokeColor=none;fillColor=none;align=center;verticalAlign=middle;whiteSpace=wrap;rounded=0;" parent="1" vertex="1">
          <mxGeometry x="480" y="240" width="40" height="20" as="geometry"/>
        </mxCell>
        <mxCell id="H2aWPDKfTVoknCPOFKpZ-22" value="处理关系链订单（集合A、B、C）" style="rounded=1;whiteSpace=wrap;html=1;" parent="1" vertex="1">
          <mxGeometry x="421" y="460" width="118" height="60" as="geometry"/>
        </mxCell>
        <mxCell id="H2aWPDKfTVoknCPOFKpZ-23" value="否" style="text;html=1;strokeColor=none;fillColor=none;align=center;verticalAlign=middle;whiteSpace=wrap;rounded=0;" parent="1" vertex="1">
          <mxGeometry x="660" y="240" width="40" height="20" as="geometry"/>
        </mxCell>
        <mxCell id="H2aWPDKfTVoknCPOFKpZ-26" value="处理关系链订单（集合A、B、C）" style="rounded=1;whiteSpace=wrap;html=1;" parent="1" vertex="1">
          <mxGeometry x="640" y="460" width="120" height="60" as="geometry"/>
        </mxCell>
        <mxCell id="H2aWPDKfTVoknCPOFKpZ-27" value="" style="endArrow=none;dashed=1;html=1;" parent="1" edge="1">
          <mxGeometry width="50" height="50" relative="1" as="geometry">
            <mxPoint x="30" y="420" as="sourcePoint"/>
            <mxPoint x="820" y="420" as="targetPoint"/>
          </mxGeometry>
        </mxCell>
        <mxCell id="H2aWPDKfTVoknCPOFKpZ-28" value="order" style="text;html=1;strokeColor=none;fillColor=none;align=center;verticalAlign=middle;whiteSpace=wrap;rounded=0;" parent="1" vertex="1">
          <mxGeometry x="40" y="30" width="40" height="20" as="geometry"/>
        </mxCell>
        <mxCell id="H2aWPDKfTVoknCPOFKpZ-30" value="" style="endArrow=classic;html=1;" parent="1" edge="1">
          <mxGeometry width="50" height="50" relative="1" as="geometry">
            <mxPoint x="50" y="420" as="sourcePoint"/>
            <mxPoint x="200" y="530" as="targetPoint"/>
          </mxGeometry>
        </mxCell>
        <mxCell id="H2aWPDKfTVoknCPOFKpZ-34" style="edgeStyle=orthogonalEdgeStyle;rounded=0;orthogonalLoop=1;jettySize=auto;html=1;entryX=0;entryY=0.5;entryDx=0;entryDy=0;" parent="1" source="H2aWPDKfTVoknCPOFKpZ-33" edge="1">
          <mxGeometry relative="1" as="geometry">
            <mxPoint x="297" y="570" as="targetPoint"/>
          </mxGeometry>
        </mxCell>
        <mxCell id="H2aWPDKfTVoknCPOFKpZ-41" value="" style="edgeStyle=orthogonalEdgeStyle;rounded=0;orthogonalLoop=1;jettySize=auto;html=1;" parent="1" source="H2aWPDKfTVoknCPOFKpZ-33" edge="1">
          <mxGeometry relative="1" as="geometry">
            <mxPoint x="200" y="650" as="targetPoint"/>
          </mxGeometry>
        </mxCell>
        <mxCell id="H2aWPDKfTVoknCPOFKpZ-33" value="判断是否在活动期内" style="rhombus;whiteSpace=wrap;html=1;" parent="1" vertex="1">
          <mxGeometry x="150" y="530" width="100" height="80" as="geometry"/>
        </mxCell>
        <mxCell id="H2aWPDKfTVoknCPOFKpZ-36" value="否" style="text;html=1;strokeColor=none;fillColor=none;align=center;verticalAlign=middle;whiteSpace=wrap;rounded=0;" parent="1" vertex="1">
          <mxGeometry x="244" y="540" width="40" height="20" as="geometry"/>
        </mxCell>
        <mxCell id="H2aWPDKfTVoknCPOFKpZ-44" style="edgeStyle=orthogonalEdgeStyle;rounded=0;orthogonalLoop=1;jettySize=auto;html=1;entryX=0.5;entryY=0;entryDx=0;entryDy=0;" parent="1" source="H2aWPDKfTVoknCPOFKpZ-42" target="H2aWPDKfTVoknCPOFKpZ-45" edge="1">
          <mxGeometry relative="1" as="geometry">
            <mxPoint x="201" y="740" as="targetPoint"/>
          </mxGeometry>
        </mxCell>
        <mxCell id="H2aWPDKfTVoknCPOFKpZ-42" value="拿到片总的userId，记录gmv、积分数据" style="rounded=1;whiteSpace=wrap;html=1;" parent="1" vertex="1">
          <mxGeometry x="141" y="650" width="120" height="60" as="geometry"/>
        </mxCell>
        <mxCell id="H2aWPDKfTVoknCPOFKpZ-43" value="是" style="text;html=1;strokeColor=none;fillColor=none;align=center;verticalAlign=middle;whiteSpace=wrap;rounded=0;" parent="1" vertex="1">
          <mxGeometry x="150" y="610" width="40" height="20" as="geometry"/>
        </mxCell>
        <mxCell id="H2aWPDKfTVoknCPOFKpZ-47" value="" style="edgeStyle=orthogonalEdgeStyle;rounded=0;orthogonalLoop=1;jettySize=auto;html=1;" parent="1" source="H2aWPDKfTVoknCPOFKpZ-45" target="H2aWPDKfTVoknCPOFKpZ-46" edge="1">
          <mxGeometry relative="1" as="geometry"/>
        </mxCell>
        <mxCell id="H2aWPDKfTVoknCPOFKpZ-45" value="处理数据记录集合D" style="rounded=1;whiteSpace=wrap;html=1;" parent="1" vertex="1">
          <mxGeometry x="141" y="750" width="120" height="60" as="geometry"/>
        </mxCell>
        <mxCell id="H2aWPDKfTVoknCPOFKpZ-46" value="dubbo接口查询单集合D（排序根据业务配置取top n）" style="rounded=1;whiteSpace=wrap;html=1;" parent="1" vertex="1">
          <mxGeometry x="141" y="850" width="120" height="60" as="geometry"/>
        </mxCell>
        <mxCell id="H2aWPDKfTVoknCPOFKpZ-49" style="edgeStyle=orthogonalEdgeStyle;rounded=0;orthogonalLoop=1;jettySize=auto;html=1;entryX=1;entryY=0.5;entryDx=0;entryDy=0;" parent="1" source="H2aWPDKfTVoknCPOFKpZ-48" target="H2aWPDKfTVoknCPOFKpZ-42" edge="1">
          <mxGeometry relative="1" as="geometry"/>
        </mxCell>
        <mxCell id="H2aWPDKfTVoknCPOFKpZ-48" value="meidian-service-user" style="rounded=0;whiteSpace=wrap;html=1;" parent="1" vertex="1">
          <mxGeometry x="590" y="650" width="120" height="60" as="geometry"/>
        </mxCell>
        <mxCell id="H2aWPDKfTVoknCPOFKpZ-51" value="mq" style="text;html=1;strokeColor=none;fillColor=none;align=center;verticalAlign=middle;whiteSpace=wrap;rounded=0;" parent="1" vertex="1">
          <mxGeometry x="530" y="660" width="40" height="20" as="geometry"/>
        </mxCell>
        <mxCell id="H2aWPDKfTVoknCPOFKpZ-52" value="&lt;h1&gt;&lt;font color=&quot;#ff0000&quot;&gt;注：&lt;/font&gt;&lt;/h1&gt;&lt;div&gt;&lt;font color=&quot;#ff0000&quot;&gt;订单的操作落库和现有的集合隔离开，新建的集合D的记录是跑出来的GMV和拉新数的结果，根据业务需求灵活取top n&lt;/font&gt;&lt;/div&gt;" style="text;html=1;strokeColor=none;fillColor=none;spacing=5;spacingTop=-20;whiteSpace=wrap;overflow=hidden;rounded=0;" parent="1" vertex="1">
          <mxGeometry x="720" y="710" width="190" height="120" as="geometry"/>
        </mxCell>
        <mxCell id="H2aWPDKfTVoknCPOFKpZ-54" style="edgeStyle=orthogonalEdgeStyle;rounded=0;orthogonalLoop=1;jettySize=auto;html=1;entryX=1;entryY=0.5;entryDx=0;entryDy=0;" parent="1" source="H2aWPDKfTVoknCPOFKpZ-53" target="H2aWPDKfTVoknCPOFKpZ-46" edge="1">
          <mxGeometry relative="1" as="geometry"/>
        </mxCell>
        <mxCell id="H2aWPDKfTVoknCPOFKpZ-53" value="meidian-restful-grouporder" style="rounded=0;whiteSpace=wrap;html=1;" parent="1" vertex="1">
          <mxGeometry x="440" y="850" width="120" height="60" as="geometry"/>
        </mxCell>
        <mxCell id="H2aWPDKfTVoknCPOFKpZ-55" value="dubbo" style="text;html=1;align=center;verticalAlign=middle;resizable=0;points=[];;autosize=1;" parent="1" vertex="1">
          <mxGeometry x="321" y="865" width="50" height="20" as="geometry"/>
        </mxCell>
        <mxCell id="H2aWPDKfTVoknCPOFKpZ-57" style="edgeStyle=orthogonalEdgeStyle;rounded=0;orthogonalLoop=1;jettySize=auto;html=1;entryX=1;entryY=0.5;entryDx=0;entryDy=0;" parent="1" source="H2aWPDKfTVoknCPOFKpZ-56" target="H2aWPDKfTVoknCPOFKpZ-53" edge="1">
          <mxGeometry relative="1" as="geometry"/>
        </mxCell>
        <mxCell id="H2aWPDKfTVoknCPOFKpZ-56" value="前端" style="rounded=0;whiteSpace=wrap;html=1;" parent="1" vertex="1">
          <mxGeometry x="710" y="850" width="117" height="60" as="geometry"/>
        </mxCell>
        <mxCell id="H2aWPDKfTVoknCPOFKpZ-58" value="http" style="text;html=1;align=center;verticalAlign=middle;resizable=0;points=[];;autosize=1;" parent="1" vertex="1">
          <mxGeometry x="620" y="860" width="40" height="20" as="geometry"/>
        </mxCell>
        <mxCell id="H2aWPDKfTVoknCPOFKpZ-61" value="" style="edgeStyle=orthogonalEdgeStyle;rounded=0;orthogonalLoop=1;jettySize=auto;html=1;" parent="1" source="H2aWPDKfTVoknCPOFKpZ-59" target="H2aWPDKfTVoknCPOFKpZ-60" edge="1">
          <mxGeometry relative="1" as="geometry"/>
        </mxCell>
        <mxCell id="H2aWPDKfTVoknCPOFKpZ-59" value="活动期外截止时间以内" style="rhombus;whiteSpace=wrap;html=1;" parent="1" vertex="1">
          <mxGeometry x="295" y="530" width="95" height="80" as="geometry"/>
        </mxCell>
        <mxCell id="H2aWPDKfTVoknCPOFKpZ-62" style="edgeStyle=orthogonalEdgeStyle;rounded=0;orthogonalLoop=1;jettySize=auto;html=1;entryX=1;entryY=0.5;entryDx=0;entryDy=0;" parent="1" source="H2aWPDKfTVoknCPOFKpZ-60" target="H2aWPDKfTVoknCPOFKpZ-42" edge="1">
          <mxGeometry relative="1" as="geometry">
            <Array as="points">
              <mxPoint x="492" y="680"/>
            </Array>
          </mxGeometry>
        </mxCell>
        <mxCell id="H2aWPDKfTVoknCPOFKpZ-65" value="" style="edgeStyle=orthogonalEdgeStyle;rounded=0;orthogonalLoop=1;jettySize=auto;html=1;" parent="1" source="H2aWPDKfTVoknCPOFKpZ-60" edge="1">
          <mxGeometry relative="1" as="geometry">
            <mxPoint x="572.5" y="570" as="targetPoint"/>
          </mxGeometry>
        </mxCell>
        <mxCell id="H2aWPDKfTVoknCPOFKpZ-60" value="判断是否发生逆向" style="rhombus;whiteSpace=wrap;html=1;" parent="1" vertex="1">
          <mxGeometry x="444" y="530" width="95" height="80" as="geometry"/>
        </mxCell>
        <mxCell id="H2aWPDKfTVoknCPOFKpZ-63" value="是" style="text;html=1;strokeColor=none;fillColor=none;align=center;verticalAlign=middle;whiteSpace=wrap;rounded=0;" parent="1" vertex="1">
          <mxGeometry x="440" y="620" width="40" height="20" as="geometry"/>
        </mxCell>
        <mxCell id="H2aWPDKfTVoknCPOFKpZ-66" value="return" style="rounded=1;whiteSpace=wrap;html=1;" parent="1" vertex="1">
          <mxGeometry x="570" y="550" width="80" height="40" as="geometry"/>
        </mxCell>
        <mxCell id="H2aWPDKfTVoknCPOFKpZ-67" value="否" style="text;html=1;strokeColor=none;fillColor=none;align=center;verticalAlign=middle;whiteSpace=wrap;rounded=0;" parent="1" vertex="1">
          <mxGeometry x="540" y="540" width="40" height="20" as="geometry"/>
        </mxCell>
        <mxCell id="H2aWPDKfTVoknCPOFKpZ-68" value="是" style="text;html=1;strokeColor=none;fillColor=none;align=center;verticalAlign=middle;whiteSpace=wrap;rounded=0;" parent="1" vertex="1">
          <mxGeometry x="397" y="540" width="40" height="20" as="geometry"/>
        </mxCell>
        <mxCell id="2z_bmU9Q9yVv895OIlO4-2" value="" style="shape=curlyBracket;whiteSpace=wrap;html=1;rounded=1;" vertex="1" parent="1">
          <mxGeometry x="12" y="40" width="20" height="400" as="geometry"/>
        </mxCell>
        <mxCell id="2z_bmU9Q9yVv895OIlO4-8" value="原逻辑" style="text;html=1;strokeColor=none;fillColor=none;align=center;verticalAlign=middle;whiteSpace=wrap;rounded=0;" vertex="1" parent="1">
          <mxGeometry x="-50" y="220" width="40" height="20" as="geometry"/>
        </mxCell>
        <mxCell id="2z_bmU9Q9yVv895OIlO4-9" value="原有逻辑" style="text;html=1;strokeColor=#B20000;fillColor=#e51400;align=center;verticalAlign=middle;whiteSpace=wrap;rounded=0;fontColor=#ffffff;" vertex="1" parent="1">
          <mxGeometry x="121" y="360" width="59" height="20" as="geometry"/>
        </mxCell>
        <mxCell id="2z_bmU9Q9yVv895OIlO4-10" value="新加逻辑" style="text;html=1;strokeColor=#B20000;fillColor=#e51400;align=center;verticalAlign=middle;whiteSpace=wrap;rounded=0;fontColor=#ffffff;" vertex="1" parent="1">
          <mxGeometry x="131" y="450" width="59" height="20" as="geometry"/>
        </mxCell>
      </root>
    </mxGraphModel>
  </diagram>
</mxfile>
